<?xml version="1.0" standalone="no"?>
<!DOCTYPE svg PUBLIC "-//W3C//DTD SVG 20010904//EN"
 "http://www.w3.org/TR/2001/REC-SVG-20010904/DTD/svg10.dtd">
<svg version="1.0" xmlns="http://www.w3.org/2000/svg"
 width="16.000000pt" height="16.000000pt" viewBox="0 0 16.000000 16.000000"
 preserveAspectRatio="xMidYMid meet">

<g transform="translate(0.000000,16.000000) scale(0.100000,-0.100000)"
fill="#000000" stroke="none">
<path d="M60 145 c0 -8 -7 -15 -15 -15 -8 0 -15 -4 -15 -10 0 -5 5 -10 10 -10
17 0 11 -26 -10 -45 -26 -24 -23 -60 5 -60 14 0 23 10 31 35 8 23 19 36 33 38
26 4 36 -19 21 -48 -17 -32 -4 -36 16 -5 25 38 6 75 -38 75 -30 0 -31 1 -12
15 11 8 14 15 7 15 -7 0 -13 7 -13 15 0 8 -4 15 -10 15 -5 0 -10 -7 -10 -15z
m-18 -117 c-7 -7 -12 -8 -12 -2 0 14 12 26 19 19 2 -3 -1 -11 -7 -17z"/>
<path d="M110 142 c0 -5 9 -17 20 -27 18 -16 20 -16 20 -2 0 9 -9 21 -20 27
-11 6 -20 7 -20 2z"/>
</g>
</svg>
